<svg width="20" height="20" viewBox="0 0 20 20" fill="none" xmlns="http://www.w3.org/2000/svg">
<path d="M13.4167 11.0833L12.2083 9.87492C12.3333 9.22214 12.1458 8.61103 11.6458 8.04159C11.1458 7.47214 10.5 7.24992 9.70833 7.37492L8.5 6.16659C8.73611 6.05547 8.97569 5.97214 9.21875 5.91659C9.46181 5.86103 9.72222 5.83325 10 5.83325C11.0417 5.83325 11.9271 6.19784 12.6563 6.927C13.3854 7.65617 13.75 8.54159 13.75 9.58325C13.75 9.86103 13.7222 10.1214 13.6667 10.3645C13.6111 10.6076 13.5278 10.8471 13.4167 11.0833ZM16.0833 13.7083L14.875 12.5416C15.4028 12.1388 15.8715 11.6978 16.2813 11.2187C16.691 10.7395 17.0417 10.1944 17.3333 9.58325C16.6389 8.18047 15.6424 7.06589 14.3438 6.2395C13.0451 5.41311 11.5972 4.99992 10 4.99992C9.59722 4.99992 9.20139 5.0277 8.8125 5.08325C8.42361 5.13881 8.04167 5.22214 7.66667 5.33325L6.375 4.04159C6.94444 3.80547 7.52778 3.62839 8.125 3.51034C8.72222 3.39228 9.34722 3.33325 10 3.33325C12.0972 3.33325 13.9653 3.91311 15.6042 5.07284C17.2431 6.23256 18.4306 7.73603 19.1667 9.58325C18.8472 10.4027 18.4271 11.1631 17.9063 11.8645C17.3854 12.5659 16.7778 13.1805 16.0833 13.7083ZM16.5 18.8333L13 15.3749C12.5139 15.5277 12.0243 15.6423 11.5313 15.7187C11.0382 15.7951 10.5278 15.8333 10 15.8333C7.90278 15.8333 6.03472 15.2534 4.39583 14.0937C2.75694 12.9339 1.56944 11.4305 0.833333 9.58325C1.125 8.84714 1.49306 8.16311 1.9375 7.53117C2.38194 6.89922 2.88889 6.33325 3.45833 5.83325L1.16667 3.49992L2.33333 2.33325L17.6667 17.6666L16.5 18.8333ZM4.625 6.99992C4.22222 7.36103 3.85417 7.75686 3.52083 8.18742C3.1875 8.61797 2.90278 9.08325 2.66667 9.58325C3.36111 10.986 4.35764 12.1006 5.65625 12.927C6.95486 13.7534 8.40278 14.1666 10 14.1666C10.2778 14.1666 10.5486 14.1492 10.8125 14.1145C11.0764 14.0798 11.3472 14.0416 11.625 13.9999L10.875 13.2083C10.7222 13.2499 10.5764 13.2812 10.4375 13.302C10.2986 13.3228 10.1528 13.3333 10 13.3333C8.95833 13.3333 8.07292 12.9687 7.34375 12.2395C6.61458 11.5103 6.25 10.6249 6.25 9.58325C6.25 9.43047 6.26042 9.28464 6.28125 9.14575C6.30208 9.00686 6.33333 8.86103 6.375 8.70825L4.625 6.99992Z" fill="#434343"/>
</svg>
